<svg width="609" height="1216" viewBox="0 0 609 1216" fill="none" xmlns="http://www.w3.org/2000/svg">
<g id="Frame 2" clip-path="url(#clip0_1_111)">
<rect width="609" height="1216" fill="white"/>
<g id="adductors">
<path id="adductors_2" d="M374.5 550L381 501L374.5 509.5L359.5 534L350 561L329.5 588L318 612.5L324 622V657V709L329.5 750.5L335.5 793L340 841L346.5 861V807V765.5L350 709L359.5 648.5L365 592.5L374.5 550Z" stroke="black"/>
<path id="adductors_3" d="M234.5 550L228 501L234.5 509.5L249.5 534L259 561L279.5 588L291 612.5L285 622V657V709L279.5 750.5L273.5 793L269 841L262.5 861V807V765.5L259 709L249.5 648.5L244 592.5L234.5 550Z" stroke="black"/>
</g>
<g id="idk">
<g id="idk_2">
<path d="M416.5 993L435.5 892L437.5 951L445 998.5L435.5 1051L434.5 1112.5L427.5 1215L416.5 1192.5H389L405.5 1112.5L416.5 993Z" stroke="black"/>
<path d="M356.5 914V930.5L378.5 961L389 993V1042L365 1074L378.5 1161L398 1091.5L399 1026L398 951V865.5L378.5 871L349.5 865.5V885.5L356.5 914Z" stroke="black"/>
</g>
<g id="idk_3">
<path d="M192.5 993L173.5 892L171.5 951L164 998.5L173.5 1051L174.5 1112.5L181.5 1215L192.5 1192.5H220L203.5 1112.5L192.5 993Z" stroke="black"/>
<path d="M252.5 914V930.5L230.5 961L220 993V1042L244 1074L230.5 1161L211 1091.5L210 1026L211 951V865.5L230.5 871L259.5 865.5V885.5L252.5 914Z" stroke="black"/>
</g>
</g>
<g id="biceps">
<g id="biceps_2">
<path d="M525.5 235.5V211.5L534 222.5L541 241L552 276.5V294L550 317.5L548 296.5L543 277.75L536 257L525.5 235.5Z" stroke="black"/>
<path d="M542 342.5C558.5 272.5 502.167 203.5 470.5 177C514.5 228.2 523.5 305 522.5 337L542 342.5Z" stroke="black"/>
<path d="M455 167.5C500.6 210.7 514 298.5 516 337L493 366.5V350.5L486.5 330L478.5 314.5L466 276.5L460.5 255.5L457.5 222.5L455 199.75L457.5 181C456.333 178.333 456 170 455 167.5Z" stroke="black"/>
</g>
<g id="biceps_3">
<path d="M83.5 235.5V211.5L75 222.5L68 241L57 276.5V294L59 317.5L61 296.5L66 277.75L73 257L83.5 235.5Z" stroke="black"/>
<path d="M67 342.5C50.5 272.5 106.833 203.5 138.5 177C94.5 228.2 85.5 305 86.5 337L67 342.5Z" stroke="black"/>
<path d="M154 167.5C108.4 210.7 95 298.5 93 337L116 366.5V350.5L122.5 330L130.5 314.5L143 276.5L148.5 255.5L151.5 222.5L154 199.75L151.5 181C152.667 178.333 153 170 154 167.5Z" stroke="black"/>
</g>
</g>
<g id="neck">
<path id="neck_2" d="M352 41L359 24.5L358 41L355 47L354 55L352.5 71L350.5 83.5V96L333 97.5L337.5 88L340 78L343.5 66L346 51.5L352 41Z" stroke="black"/>
<path id="neck_3" d="M358.5 18V0L351 10.5L341 22L333.5 32.5L329.5 41.5L327.5 56.5L323.5 74.5L321 86L319 96L312 109L322.5 102.5L328.5 95.5L334.5 82L338 69.5L340 61L342.5 50C343.833 47.1667 347.6 41.2 348 40C348.4 38.8 355.167 24.8333 358.5 18Z" stroke="black"/>
<path id="neck_4" d="M315.5 91.5L316.5 39H310.5L308.5 57.5L309.5 88.5V97.5V106L315.5 91.5Z" stroke="black"/>
<path id="neck_5" d="M257 41L250 24.5L251 41L254 47L255 55L256.5 71L258.5 83.5V96L276 97.5L271.5 88L269 78L265.5 66L263 51.5L257 41Z" stroke="black"/>
<path id="neck_6" d="M250.5 18V0L258 10.5L268 22L275.5 32.5L279.5 41.5L281.5 56.5L285.5 74.5L288 86L290 96L297 109L286.5 102.5L280.5 95.5L274.5 82L271 69.5L269 61L266.5 50C265.167 47.1667 261.4 41.2 261 40C260.6 38.8 253.833 24.8333 250.5 18Z" stroke="black"/>
<path id="neck_7" d="M293.5 91.5L292.5 39H298.5L300.5 57.5L299.5 88.5V97.5V106L293.5 91.5Z" stroke="black"/>
</g>
<g id="traps">
<path id="traps_2" d="M367.5 50L361.5 46L360 51.5L358 61.75L357 72L356 83V96L379.5 94L399.5 90L416 83L428 76L412 70.5L399.5 66.5L392.5 61.5L386 58L374.5 54L367.5 50Z" stroke="black"/>
<path id="traps_3" d="M241.5 50L247.5 46L249 51.5L251 61.75L252 72L253 83V96L229.5 94L209.5 90L193 83L181 76L197 70.5L209.5 66.5L216.5 61.5L223 58L234.5 54L241.5 50Z" stroke="black"/>
</g>
<g id="sideDelts">
<path id="sideDelts_2" d="M521 226V202C520 195.5 519.54 188.485 520 182C525.5 104.5 470.558 79.5723 443.5 80.5C442.333 81.8334 439 85.1 435 87.5C504.6 93.1 510.333 153.5 504.5 183V191.5L506.5 203.5L521 226Z" stroke="black"/>
<path id="sideDelts_3" d="M88 226V202C89 195.5 89.4602 188.485 89 182C83.5 104.5 138.442 79.5723 165.5 80.5C166.667 81.8334 170 85.1 174 87.5C104.4 93.1 98.6667 153.5 104.5 183V191.5L102.5 203.5L88 226Z" stroke="black"/>
</g>
<g id="frontDelts">
<path id="frontDelts_2" d="M422 91.5L433 92C498.5 99.5 505.333 153.833 499.5 183.5L501.5 198L493.5 189L483 178.5L470.5 169L459.5 157.5L452.25 139.5L440 128.5L420.5 114.5L399 104.5L390 102L382 98.5L386.5 97L403.5 95L412 92.5L422 91.5Z" stroke="black"/>
<path id="frontDelts_3" d="M187 91.5L176 92C110.5 99.5 103.667 153.833 109.5 183.5L107.5 198L115.5 189L126 178.5L138.5 169L149.5 157.5L156.75 139.5L169 128.5L188.5 114.5L210 104.5L219 102L227 98.5L222.5 97L205.5 95L197 92.5L187 91.5Z" stroke="black"/>
</g>
<g id="forearms">
<g id="forearms_2">
<path d="M559.5 296.5L556.5 289.5V304.25L555 318C534 384 568 432.833 594 461L599.5 467L609 476.5L607 449L603 434C601.5 427.333 598.5 412.9 598.5 408.5C590.9 367.3 576.667 333.333 570.5 321.5L560.5 301.5L559.5 296.5Z" stroke="black"/>
<path d="M541 369L537 349.5L520 343L515.5 347.5L541 369Z" stroke="black"/>
<path d="M550.5 408.5L540 376L512 350.5L503.5 360.5L509 372.5L537 424L570.5 461L595.5 501L599.5 499.5L577.5 456.5L565.5 434L550.5 408.5Z" stroke="black"/>
<path d="M514.5 421L496.5 370L500.5 364.5L532 424L560 467L585.5 504L582 507L557.5 472.5L514.5 421Z" stroke="black"/>
</g>
<g id="forearms_3">
<path d="M49.5 296.5L52.5 289.5V304.25L54 318C75 384 41 432.833 15 461L9.5 467L0 476.5L2 449L6 434C7.5 427.333 10.5 412.9 10.5 408.5C18.1 367.3 32.3333 333.333 38.5 321.5L48.5 301.5L49.5 296.5Z" stroke="black"/>
<path d="M68 369L72 349.5L89 343L93.5 347.5L68 369Z" stroke="black"/>
<path d="M58.5 408.5L69 376L97 350.5L105.5 360.5L100 372.5L72 424L38.5 461L13.5 501L9.5 499.5L31.5 456.5L43.5 434L58.5 408.5Z" stroke="black"/>
<path d="M94.5 421L112.5 370L108.5 364.5L77 424L49 467L23.5 504L27 507L51.5 472.5L94.5 421Z" stroke="black"/>
</g>
</g>
<g id="chest">
<path id="chest_2" d="M346.5 101.5L370 100.5L382.5 104.5L397 109.5L421.5 122L447.5 144L450.5 160L448 176L440 191L432 228.5L419 242.5L397.5 248.5L385 252L357.5 246.5L330 234L312.5 216.5V166.5L322.5 125L333 107.5L346.5 101.5Z" stroke="black"/>
<path id="chest_3" d="M262.5 101.5L239 100.5L226.5 104.5L212 109.5L187.5 122L161.5 144L158.5 160L161 176L169 191L177 228.5L190 242.5L211.5 248.5L224 252L251.5 246.5L279 234L296.5 216.5V166.5L286.5 125L276 107.5L262.5 101.5Z" stroke="black"/>
</g>
<g id="lats">
<path id="lats_2" d="M434.5 302.5L438 230.5L445.5 194L453.5 179L450.5 195.5V214.5L455 250.5L453.5 261L445.5 283.5L438 300L437 308L430 323L434.5 302.5Z" stroke="black"/>
<path id="lats_3" d="M174.5 302.5L171 230.5L163.5 194L155.5 179L158.5 195.5V214.5L154 250.5L155.5 261L163.5 283.5L171 300L172 308L179 323L174.5 302.5Z" stroke="black"/>
</g>
<g id="abs">
<g id="abs_2">
<path d="M310 244L312 238H324.5L338 242.5L356.5 251L366.5 255L371 263.5L376.5 279V290.5V307L373.5 314L363 308L353 302.5L344 297.5L332 292L316 286.5L310 282L308 273L310 244Z" stroke="black"/>
<path d="M373.5 353.5V321.5L365.5 316L356.5 311.5L345 305.5L338 301.5L329 297.5L321 295L312 294L310 303.5L308 338.5L314 344.5L332 346.5L348.5 347.5L363 352.5L373.5 353.5Z" stroke="black"/>
<path d="M365.5 358.5H373.5L375.5 359.5L373.5 395L371 410.5L363 406.5H345L325 403.5L312 395V386.5V355.5L316 349.5L328 351.5L352 353.5L365.5 358.5Z" stroke="black"/>
<path d="M367.5 421L369 415L361 410.5H343L323 407.5L310 399.5L308 589.5H321L327.5 579L329.5 571.5L338 551L352 510L354 492L356.5 473L367.5 442.5V438.5V421Z" stroke="black"/>
</g>
<g id="abs_3">
<path d="M299 244L297 238H284.5L271 242.5L252.5 251L242.5 255L238 263.5L232.5 279V290.5V307L235.5 314L246 308L256 302.5L265 297.5L277 292L293 286.5L299 282L301 273L299 244Z" stroke="black"/>
<path d="M235.5 353.5V321.5L243.5 316L252.5 311.5L264 305.5L271 301.5L280 297.5L288 295L297 294L299 303.5L301 338.5L295 344.5L277 346.5L260.5 347.5L246 352.5L235.5 353.5Z" stroke="black"/>
<path d="M243.5 358.5H235.5L233.5 359.5L235.5 395L238 410.5L246 406.5H264L284 403.5L297 395V386.5V355.5L293 349.5L281 351.5L257 353.5L243.5 358.5Z" stroke="black"/>
<path d="M241.5 421L240 415L248 410.5H266L286 407.5L299 399.5L301 589.5H288L281.5 579L279.5 571.5L271 551L257 510L255 492L252.5 473L241.5 442.5V438.5V421Z" stroke="black"/>
</g>
</g>
<g id="obligues">
<g id="obligues_2">
<path d="M381 263.5L388.5 259.5L406 269L417.5 273.5H431.5L413.5 290H391.5L383.5 284L381 263.5Z" stroke="black"/>
<path d="M385.5 299L391.5 294H413.5L425 308L417.5 317.5L413.5 318.5L400 323L391.5 330L385.5 331L383.5 328L385.5 299Z" stroke="black"/>
<path d="M426.5 331L419.5 321H415.5L403 325L393 333L385.5 337V369.5L388.5 377L409.5 362L422.5 347L426.5 331Z" stroke="black"/>
<path d="M419.5 373L422.5 351.5L417.5 358.5L405 369.5L388.5 382L383.5 389V407L393 412.5L400 409L415.5 401.5L422.5 392L419.5 373Z" stroke="black"/>
<path d="M425 410.5L422.5 396.5L415.5 405.5L403 411.5L391.5 416.5L376.5 427L374.5 439.5L369.5 457L364 476L366 494.5L381 487L403 476L415.5 469.5L425 457L422.5 449L426.5 430.5L425 410.5Z" stroke="black"/>
</g>
<g id="obligues_3">
<path d="M228 263.5L220.5 259.5L203 269L191.5 273.5H177.5L195.5 290H217.5L225.5 284L228 263.5Z" stroke="black"/>
<path d="M223.5 299L217.5 294H195.5L184 308L191.5 317.5L195.5 318.5L209 323L217.5 330L223.5 331L225.5 328L223.5 299Z" stroke="black"/>
<path d="M182.5 331L189.5 321H193.5L206 325L216 333L223.5 337V369.5L220.5 377L199.5 362L186.5 347L182.5 331Z" stroke="black"/>
<path d="M189.5 373L186.5 351.5L191.5 358.5L204 369.5L220.5 382L225.5 389V407L216 412.5L209 409L193.5 401.5L186.5 392L189.5 373Z" stroke="black"/>
<path d="M184 410.5L186.5 396.5L193.5 405.5L206 411.5L217.5 416.5L232.5 427L234.5 439.5L239.5 457L245 476L243 494.5L228 487L206 476L193.5 469.5L184 457L186.5 449L182.5 430.5L184 410.5Z" stroke="black"/>
</g>
</g>
<g id="quads">
<g id="quads_2">
<path d="M431 593.5L414.5 572.5L424.5 592.5L431 620.5L442 667L449 708V768L432 805L425.5 818.5L431 841L436.5 873L442 830L449 809L460 778.5L464.5 735V681L454.5 647L446 627L431 593.5Z" stroke="black"/>
<path d="M403.5 560L393 517.5L385.5 604L377 663.5V712L382 735L393 762L409.5 798L405.5 825.5L420.5 814.5L442 762V712L434.5 663.5L418.5 595.5L403.5 560Z" stroke="black"/>
<path d="M365.5 718L371 681.5L370 712L377 740.5L387.5 764L403.5 798L400 830L395.5 854L385.5 864L370 860L362.5 854L357.5 835.5V814.5L363.5 764L365.5 718Z" stroke="black"/>
</g>
<g id="quads_3">
<path d="M178 593.5L194.5 572.5L184.5 592.5L178 620.5L167 667L160 708V768L177 805L183.5 818.5L178 841L172.5 873L167 830L160 809L149 778.5L144.5 735V681L154.5 647L163 627L178 593.5Z" stroke="black"/>
<path d="M205.5 560L216 517.5L223.5 604L232 663.5V712L227 735L216 762L199.5 798L203.5 825.5L188.5 814.5L167 762V712L174.5 663.5L190.5 595.5L205.5 560Z" stroke="black"/>
<path d="M243.5 718L238 681.5L239 712L232 740.5L221.5 764L205.5 798L209 830L213.5 854L223.5 864L239 860L246.5 854L251.5 835.5V814.5L245.5 764L243.5 718Z" stroke="black"/>
</g>
</g>
<g id="calves">
<path id="calves_2" d="M363.5 949.5L355.5 937L351.5 969.5L349 1011.5V1033L351.5 1042.5L359.5 1062L363.5 1067.5L382.5 1041.5L384.5 1004L380 984L373 963.5L363.5 949.5Z" stroke="black"/>
<path id="calves_3" d="M245.5 949.5L253.5 937L257.5 969.5L260 1011.5V1033L257.5 1042.5L249.5 1062L245.5 1067.5L226.5 1041.5L224.5 1004L229 984L236 963.5L245.5 949.5Z" stroke="black"/>
</g>
<g id="abductors">
<path id="abductors_2" d="M212.5 504L210.5 489L206 482L189.5 473.5L183 464L176 482L174 498.5L173 530L168 550.5L165 572L161.5 592.5L156.5 611.5L154.5 632.5L165 607.5L173.25 590.75L184.5 576L198 558.5L205.75 539.25L210.5 520L212.5 504Z" stroke="black"/>
<path id="abductors_3" d="M396.5 504L398.5 489L403 482L419.5 473.5L426 464L433 482L435 498.5L436 530L441 550.5L444 572L447.5 592.5L452.5 611.5L454.5 632.5L444 607.5L435.75 590.75L424.5 576L411 558.5L403.25 539.25L398.5 520L396.5 504Z" stroke="black"/>
</g>
</g>
<defs>
<clipPath id="clip0_1_111">
<rect width="609" height="1216" fill="white"/>
</clipPath>
</defs>
</svg>
