<svg width="609" height="1244" viewBox="0 0 609 1244" fill="none" xmlns="http://www.w3.org/2000/svg">
<g id="Frame 3" clip-path="url(#clip0_2_113)">
<rect width="609" height="1244" fill="white"/>
<g id="abductors">
<path id="abductors_2" d="M166.5 730.5C161.3 700.5 174 655 177 624.5L183 590L204 630.5C204 632.333 187.5 647.6 187.5 680C180.5 756.5 180.5 823.5 177 842C177 827.2 170 761.5 166.5 730.5Z" stroke="black"/>
<path id="abductors_3" d="M448.764 730.5C453.964 700.5 441.264 655 438.264 624.5L432.264 590L411.264 630.5C411.264 632.333 427.764 647.6 427.764 680C434.764 756.5 434.764 823.5 438.264 842C438.264 827.2 445.264 761.5 448.764 730.5Z" stroke="black"/>
</g>
<g id="adductors">
<path id="adductors_2" d="M362.135 673L365.135 653.5L362.135 650.5L343.135 646C337.969 645.167 326.635 643.5 322.635 643.5C317.435 676.3 327.802 763.5 333.635 803L343.135 839L340.635 815V772L349.135 727L353.135 702L356.635 684.5L362.135 673Z" stroke="black"/>
<path id="adductors_3" d="M252.219 673L249.219 653.5L252.219 650.5L271.219 646C276.386 645.167 287.719 643.5 291.719 643.5C296.919 676.3 286.553 763.5 280.719 803L271.219 839L273.719 815V772L265.219 727L261.219 702L257.719 684.5L252.219 673Z" stroke="black"/>
</g>
<g id="hamstrings">
<g id="hamstrings_2">
<path d="M201.5 648L212 635.5L224 645.5L240 650C205.5 670.5 221.5 758.5 221.5 775C224.5 816 197 881 191 889.5C183.4 898.7 179.5 912.667 178.5 918.5V885L182.5 870L186 840L187 768L190 715C191.667 705.5 193 685 193 679C195 669.8 198.333 652.833 201.5 648Z" stroke="black"/>
<path d="M247.5 670.5L245.5 653C216 663 226 754 227 775C227.8 791.8 221.667 821.667 218.5 834.5L221.5 854L232.5 870L240.25 882.75L246.5 896L250.5 909.5L259 926C259 911.5 260.4 879.1 262 873.5C264.5 864 268.333 846.5 267.5 840L270 812V780.5L269 767.5L264.5 742L260 719L254 688.5L247.5 670.5Z" stroke="black"/>
</g>
<g id="hamstrings_3">
<path d="M413.135 648L402.635 635.5L390.635 645.5L374.635 650C409.135 670.5 393.135 758.5 393.135 775C390.135 816 417.635 881 423.635 889.5C431.235 898.7 435.135 912.667 436.135 918.5V885L432.135 870L428.635 840L427.635 768L424.635 715C422.969 705.5 421.635 685 421.635 679C419.635 669.8 416.302 652.833 413.135 648Z" stroke="black"/>
<path d="M367.135 670.5L369.135 653C398.635 663 388.635 754 387.635 775C386.835 791.8 392.969 821.667 396.135 834.5L393.135 854L382.135 870L374.385 882.75L368.135 896L364.135 909.5L355.635 926C355.635 911.5 354.235 879.1 352.635 873.5C350.135 864 346.302 846.5 347.135 840L344.635 812V780.5L345.635 767.5L350.135 742L354.635 719L360.635 688.5L367.135 670.5Z" stroke="black"/>
</g>
</g>
<g id="traps">
<path id="traps_2" d="M278 1C280.5 24.5 260.6 76.7 177 89.5C173.5 92.5 167.3 95 164.5 95C192.5 123.5 223.589 133.039 227 138C232.5 146 230.333 162.833 230.5 172.5L238.5 200.5L241.5 220.5L245.5 243C248 251 262.6 293.6 267 298C284.2 320.8 284.667 343.333 281.5 351.5L295.5 360.5L297 361.5H319.135L333.135 351.5C329.969 343.333 330.435 320.8 347.635 298C352.035 293.6 366.635 251 369.135 243L373.135 220.5L376.135 200.5L384.135 172.5C384.302 162.833 382.135 146 387.635 138C391.046 133.039 422.135 123.5 450.135 95C447.335 95 441.135 92.5 437.635 89.5C354.035 76.7 334.135 24.5 336.635 1H279" stroke="black"/>
</g>
<g id="rear-delts">
<path id="rear-delts_2" d="M97 210C90.2 125.6 121.5 111.5 160.5 96C184.5 122.8 211.5 136.167 222 139.5L213 143C198 145.5 183.9 142 175.5 143C152.3 140.6 134.833 160.667 129.5 169.5L124 175C120 179 108.2 192.4 97 210Z" stroke="black"/>
<path id="rear-delts_3" d="M517.635 210C524.435 125.6 493.135 111.5 454.135 96C430.135 122.8 403.135 136.167 392.635 139.5L401.635 143C416.635 145.5 430.735 142 439.135 143C462.335 140.6 479.802 160.667 485.135 169.5L490.635 175C494.635 179 506.435 192.4 517.635 210Z" stroke="black"/>
</g>
<g id="rhomboids">
<path id="rhomboids_2" d="M225.5 155.5L223 144L214 147C208.5 148 191.537 148.558 187 148C154.5 144 139.471 163.167 132.305 174.5L138 178.5L146 183.5L158.5 188.5V207L164.5 221V242.5L177.5 246.5L205.5 250L242.5 246.5L237.5 217L234 197L225.5 172.5V155.5Z" stroke="black"/>
<path id="rhomboids_3" d="M389.135 155.5L391.635 144L400.635 147C406.135 148 423.099 148.558 427.635 148C460.135 144 475.164 163.167 482.331 174.5L476.635 178.5L468.635 183.5L456.135 188.5V207L450.135 221V242.5L437.135 246.5L409.135 250L372.135 246.5L377.135 217L380.635 197L389.135 172.5V155.5Z" stroke="black"/>
</g>
<g id="triceps">
<g id="triceps_2">
<path d="M63.5 302C66.7 270.4 87.8333 230.167 98 214L118 187.5L127 178L132 182L118 208L103 246.5L98 269L91 283L79.5 300L72.5 322L70.5 355.5L66 342.5L60.5 328.5V315.5C61 313.5 62.3 308 63.5 302Z" stroke="black"/>
<path d="M161 223L113.5 263.5L110.5 259L103 263.5L135 182L142.5 185.5L155 192V208L161 223Z" stroke="black"/>
<path d="M103 297L110.5 272L160.5 229V238.5L161 272L127 342.5L116 362.5L98 382L95.5 375.5V362.5L92.5 352.5L91 337L95.5 322L103 297Z" stroke="black"/>
</g>
<g id="triceps_3">
<path d="M551.135 302C547.935 270.4 526.802 230.167 516.635 214L496.635 187.5L487.635 178L482.635 182L496.635 208L511.635 246.5L516.635 269L523.635 283L535.135 300L542.135 322L544.135 355.5L548.635 342.5L554.135 328.5V315.5C553.635 313.5 552.335 308 551.135 302Z" stroke="black"/>
<path d="M453.635 223L501.135 263.5L504.135 259L511.635 263.5L479.635 182L472.135 185.5L459.635 192V208L453.635 223Z" stroke="black"/>
<path d="M511.635 297L504.135 272L454.135 229V238.5L453.635 272L487.635 342.5L498.635 362.5L516.635 382L519.135 375.5V362.5L522.135 352.5L523.635 337L519.135 322L511.635 297Z" stroke="black"/>
</g>
</g>
<g id="lats">
<path id="lats_2" d="M301 506.5L282.5 505C264.5 492.833 228.1 468.2 226.5 467C230.1 459.4 229.333 452.833 228.5 450.5C202 411 195 380 190 343.5C181.5 327 176.5 310 176.5 307C169.3 294.2 167.5 280 166 274.5L165 246.5L175.75 250.5L186.5 252.5L207.5 255L241 252.5C247 268 259.8 299 263 303C280.6 319.8 278 343 274.5 352.5L295 365.5H321L340.135 352.5C336.635 343 334.035 319.8 351.635 303C354.835 299 367.635 268 373.635 252.5L407.135 255L428.135 252.5L438.885 250.5L449.635 246.5L448.635 274.5C447.135 280 445.335 294.2 438.135 307C438.135 310 433.135 327 424.635 343.5C419.635 380 412.635 411 386.135 450.5C385.302 452.833 384.535 459.4 388.135 467C386.535 468.2 350.135 492.833 332.135 505L313.635 506.5" stroke="black"/>
</g>
<g id="glutes">
<path id="glutes_2" d="M215 510L225 476.5C273.8 505.3 291.948 525.5 300 557.5C319.5 635 273.5 650 236 644C205.6 632.4 195.667 598.5 194.5 583L200 547.5L215 510Z" stroke="black"/>
<path id="glutes_3" d="M398 508.5L389.5 478C340.7 506.8 322.687 525.5 314.635 557.5C295.135 635 341.135 650 378.635 644C409.035 632.4 418.969 598.5 420.135 583L414.635 547.5L398 508.5Z" stroke="black"/>
</g>
<g id="calves">
<path id="calves_2" d="M179.5 921.5L177 947.5C173.667 972.667 172.3 1030.3 193.5 1059.5C198.5 1072.5 220 1125 214.5 1163.5C214.5 1171.1 217.167 1216 218.5 1237.5L207.5 1223C209.167 1219.83 210 1209.1 200 1191.5C200 1188 187 1168 184.5 1117.5C182 1067 168 1043.5 179.5 921.5ZM205 874L223.5 903.5L224.5 915L229 991L230 1030C230 1039 221.9 1068.7 197.5 1055.5C187 1039.17 173 1006.5 186.5 909.5C188.5 902.5 200.5 888.5 205 874ZM234.5 883.5L231 891L228.5 903.5L234.5 1033C235.5 1044.67 241 1070.3 255 1079.5C255 1075.5 255 1071.83 255 1070.5C263 1063.17 275 1025 259 931C255.8 926.6 251.667 919.5 249.5 916L242 899L234.5 883.5Z" stroke="black"/>
<path id="calves_3" d="M435.135 921.5L437.635 947.5C440.969 972.667 442.335 1030.3 421.135 1059.5C416.135 1072.5 394.635 1125 400.135 1163.5C400.135 1171.1 397.469 1216 396.135 1237.5L407.135 1223C405.469 1219.83 404.635 1209.1 414.635 1191.5C414.635 1188 427.635 1168 430.135 1117.5C432.635 1067 446.635 1043.5 435.135 921.5ZM409.635 874L391.135 903.5L390.135 915L385.635 991L384.635 1030C384.635 1039 392.735 1068.7 417.135 1055.5C427.635 1039.17 441.635 1006.5 428.135 909.5C426.135 902.5 414.135 888.5 409.635 874ZM380.135 883.5L383.635 891L386.135 903.5L380.135 1033C379.135 1044.67 373.635 1070.3 359.635 1079.5C359.635 1075.5 359.635 1071.83 359.635 1070.5C351.635 1063.17 339.635 1025 355.635 931C358.835 926.6 362.969 919.5 365.135 916L372.635 899L380.135 883.5Z" stroke="black"/>
</g>
<g id="tendon">
<path id="tendon_2" d="M219.5 1161C224.5 1120 208.5 1093.5 201 1061.5C220 1066.5 225.5 1054 232.5 1044.5C235 1062 245 1076.5 253 1082C248.5 1095.5 246 1138 243 1151.5C236.5 1166 236.5 1230.5 236.5 1239C232.1 1245.8 225.333 1241.83 222.5 1239L219.5 1173V1161Z" stroke="black"/>
<path id="tendon_3" d="M395.135 1161C390.135 1120 406.135 1093.5 413.635 1061.5C394.635 1066.5 389.135 1054 382.135 1044.5C379.635 1062 369.635 1076.5 361.635 1082C366.135 1095.5 368.635 1138 371.635 1151.5C378.135 1166 378.135 1230.5 378.135 1239C382.535 1245.8 389.302 1241.83 392.135 1239L395.135 1173V1161Z" stroke="black"/>
</g>
<g id="forearms">
<g id="forearms_2">
<path d="M78 463.5C59.2 481.5 45.8333 513.333 41.5 527V513L59 466L85 398.5L102 383.5C107.833 377 121.1 361.6 127.5 352C123.5 391 89 448.5 78 463.5Z" stroke="black"/>
<path d="M56 329.5V311L36.5 356.5L29.5 373.5C23.1667 404.333 9.90001 468.9 7.50002 480.5C-0.0999756 489.7 -0.666642 503 2.44379e-05 508.5L5.00002 519C12.5 521.667 29.3 526.4 36.5 524C32.5 514.8 38.1667 501.5 41.5 496L59 452.5L78 395L75 391L63 380L66.5 360.5L56 329.5Z" stroke="black"/>
</g>
<g id="forearms_3">
<path d="M536.635 463.5C555.435 481.5 568.802 513.333 573.135 527V513L555.635 466L529.635 398.5L512.635 383.5C506.802 377 493.535 361.6 487.135 352C491.135 391 525.635 448.5 536.635 463.5Z" stroke="black"/>
<path d="M558.635 329.5V311L578.135 356.5L585.135 373.5C591.469 404.333 604.735 468.9 607.135 480.5C614.735 489.7 615.302 503 614.635 508.5L609.635 519C602.135 521.667 585.335 526.4 578.135 524C582.135 514.8 576.469 501.5 573.135 496L555.635 452.5L536.635 395L539.635 391L551.635 380L548.135 360.5L558.635 329.5Z" stroke="black"/>
</g>
</g>
</g>
<defs>
<clipPath id="clip0_2_113">
<rect width="609" height="1244" fill="white"/>
</clipPath>
</defs>
</svg>
